<?xml version="1.0" encoding="utf-8"?>
<!-- Generator: Adobe Illustrator 16.0.0, SVG Export Plug-In . SVG Version: 6.00 Build 0)  -->
<!DOCTYPE svg PUBLIC "-//W3C//DTD SVG 1.1//EN" "http://www.w3.org/Graphics/SVG/1.1/DTD/svg11.dtd">
<svg version="1.1" id="Layer_1" xmlns="http://www.w3.org/2000/svg" xmlns:xlink="http://www.w3.org/1999/xlink" x="0px" y="0px"
	 width="512px" height="384px" viewBox="0 0 512 384" enable-background="new 0 0 512 384" xml:space="preserve">
<path fill="#CF649A" d="M440.6,220.6c-17.9,0.101-33.4,4.4-46.4,10.801c-4.8-9.5-9.6-17.801-10.399-24c-0.9-7.2-2-11.601-0.9-20.2
	C384,178.6,389,166.4,389,165.4c-0.101-0.9-1.101-5.3-11.4-5.4s-19.2,2-20.2,4.7c-1,2.7-3,8.9-4.3,15.3
	c-1.8,9.4-20.6,42.7-31.3,60.2c-3.5-6.8-6.5-12.8-7.101-17.601c-0.899-7.199-2-11.6-0.899-20.199c1.1-8.601,6.1-20.8,6.1-21.8
	c-0.1-0.9-1.1-5.3-11.399-5.4c-10.301-0.1-19.2,2-20.2,4.7c-1,2.7-2.1,9.1-4.3,15.3C281.9,201.4,256.9,257,250.4,271.5
	c-3.3,7.4-6.199,13.3-8.3,17.3c-2.1,4-0.1,0.3-0.3,0.7c-1.8,3.4-2.8,5.3-2.8,5.3v0.101c-1.4,2.5-2.9,4.899-3.601,4.899
	c-0.5,0-1.5-6.7,0.2-15.899c3.7-19.301,12.7-49.4,12.601-50.5c0-0.5,1.699-5.801-5.801-8.5c-7.3-2.7-9.899,1.8-10.5,1.8
	c-0.6,0-1.1,1.6-1.1,1.6s8.1-33.899-15.5-33.899c-14.8,0-35.2,16.1-45.3,30.8c-6.4,3.5-20,10.899-34.4,18.8
	c-5.5,3-11.2,6.2-16.6,9.1L117.9,251.9C89.3,221.4,36.4,199.8,38.6,158.8c0.8-14.9,6-54.2,101.601-101.8
	c78.3-39,141-28.3,151.899-4.5c15.5,34-33.5,97.2-114.899,106.3c-31,3.5-47.301-8.5-51.4-13c-4.3-4.7-4.9-4.9-6.5-4
	c-2.6,1.4-1,5.6,0,8.1c2.4,6.3,12.4,17.5,29.4,23.1c14.899,4.9,51.3,7.6,95.3-9.4c49.3-19.1,87.8-72.1,76.5-116.4
	c-11.5-45.1-86.3-59.9-157-34.8C121.4,27.4,75.8,50.8,43,81.5C4,117.9-2.2,149.7,0.4,162.9c9.101,47.1,74,77.8,100,100.5
	c-1.3,0.699-2.5,1.399-3.6,2c-13,6.399-62.5,32.3-74.9,59.699c-14,31,2.2,53.301,13,56.301C68.3,390.7,102.5,374,121,346.5
	c18.399-27.5,16.2-63.2,7.7-79.5l-0.301-0.6l10.2-6c6.601-3.9,13.101-7.5,18.8-10.601c-3.199,8.7-5.5,19-6.699,34
	c-1.4,17.601,5.8,40.4,15.3,49.4c4.2,3.899,9.2,4,12.3,4c11,0,16-9.101,21.5-20c6.8-13.3,12.8-28.7,12.8-28.7s-7.5,41.7,13,41.7
	c7.5,0,15-9.7,18.4-14.7v0.1c0,0,0.2-0.3,0.6-1c0.8-1.199,1.2-1.899,1.2-1.899v-0.2c3-5.2,9.7-17.1,19.7-36.8
	c12.899-25.4,25.3-57.2,25.3-57.2s1.2,7.8,4.9,20.6c2.199,7.601,6.999,15.9,10.699,24c-3,4.2-4.8,6.601-4.8,6.601l0.1,0.1
	c-2.399,3.2-5.1,6.601-7.899,10c-10.2,12.2-22.4,26.101-24,30.101c-1.9,4.699-1.5,8.199,2.2,11c2.7,2,7.5,2.399,12.6,2
	c9.2-0.601,15.6-2.9,18.8-4.301c5-1.8,10.7-4.5,16.2-8.5c10-7.399,16.1-17.899,15.5-31.899c-0.3-7.7-2.8-15.3-5.9-22.5
	c0.9-1.3,1.801-2.601,2.7-4c15.8-23.101,28-48.5,28-48.5s1.2,7.8,4.9,20.6c1.899,6.5,5.7,13.601,9.1,20.601
	c-14.8,12.1-24.1,26.1-27.3,35.3c-5.9,17-1.3,24.7,7.4,26.5c3.899,0.8,9.5-1,13.699-2.8c5.2-1.7,11.5-4.601,17.301-8.9
	c10-7.4,19.6-17.7,19.1-31.6c-0.3-6.4-2-12.7-4.3-18.7c12.6-5.2,28.899-8.2,49.6-5.7c44.5,5.2,53.3,33,51.601,44.6
	c-1.7,11.601-11,18-14.101,20c-3.1,1.9-4.1,2.601-3.8,4c0.4,2.101,1.8,2,4.5,1.601c3.7-0.601,23.4-9.5,24.2-30.899
	C513,250.301,486.9,220.301,440.6,220.6L440.6,220.6z M97.4,336.3C82.7,352.4,62,358.5,53.2,353.3c-9.5-5.5-5.801-29.2,12.3-46.3
	c11-10.4,25.3-20,34.7-25.9c2.1-1.3,5.3-3.199,9.1-5.5c0.6-0.399,1-0.6,1-0.6c0.7-0.4,1.5-0.9,2.3-1.4
	C119.3,298,112.9,319.4,97.4,336.3L97.4,336.3z M204.9,263.2C199.8,275.7,189,307.8,182.5,306c-5.601-1.5-9-25.8-1.101-49.8
	c4-12.101,12.5-26.5,17.5-32.101c8.101-9,16.9-12,19.101-8.3C220.6,220.6,208.1,255.4,204.9,263.2z M293.6,305.6
	c-2.2,1.101-4.2,1.9-5.1,1.301c-0.7-0.4,0.899-1.9,0.899-1.9s11.1-11.9,15.5-17.4c2.5-3.199,5.5-6.899,8.7-11.1v1.2
	C313.6,292.1,299.8,301.7,293.6,305.6z M361.999,290c-1.6-1.2-1.399-4.9,4-16.5c2.101-4.6,6.9-12.3,15.2-19.6
	c1,3,1.601,5.899,1.5,8.6C382.6,280.5,369.8,287.2,361.999,290z"/>
</svg>
